#!OML:ASF H:\Dans Jumps\Project 1\Capture day 1\Session 1\subject.ASF
:FULLY-SPECIFIED
:DEGREES
391
root 0.40333 17.7252 -2.39596 7.06014 -2.2932 -1.16067
lowerback -0.103551 -0.303775 -0.722428
upperback 4.01669 -0.433454 1.23051
thorax 4.20863 -0.266747 1.65726
lowerneck -12.4367 0.496128 -2.11383
upperneck 35.9404 0.882761 1.14684
head 14.4006 0.233178 0.979101
rclavicle 3.13086e-015 -7.15625e-015
rhumerus -21.2104 -9.72964 -84.0376
rradius 24.8278
rwrist 30.4864
rhand -18.833 -25.9594
rfingers 7.12502
rthumb 7.46631 -55.8077
lclavicle 3.13086e-015 -7.15625e-015
lhumerus -17.7121 -4.35766 88.6326
lradius 19.1935
lwrist 6.62841
lhand -26.4044 -4.43517
lfingers 7.12502
lthumb 0.155177 25.5445
rfemur -16.4499 -0.0907982 18.5406
rtibia 23.9279
rfoot -13.0307 1.60585
rtoes 14.0816
lfemur -13.9921 6.7743 -17.7267
ltibia 20.5809
lfoot -9.58197 7.39045
ltoes 1.80419
392
root 0.401919 17.7248 -2.39803 7.0487 -2.2703 -1.16967
lowerback -0.10817 -0.30384 -0.72
upperback 4.01599 -0.43362 1.23172
thorax 4.21051 -0.266769 1.65712
lowerneck -12.4415 0.495776 -2.11335
upperneck 35.9499 0.881827 1.14895
head 14.4062 0.233113 0.979914
rclavicle -4.14963e-015 -9.64106e-015
rhumerus -21.1695 -9.70024 -84.0608
rradius 24.8542
rwrist 30.4538
rhand -18.8302 -25.9574
rfingers 7.12502
rthumb 7.46908 -55.8055
lclavicle -4.14963e-015 -9.64106e-015
lhumerus -17.674 -4.3002 88.6149
lradius 19.1911
lwrist 6.57588
lhand -26.4011 -4.42242
lfingers 7.12502
lthumb 0.158365 25.5573
rfemur -16.4419 -0.108837 18.5566
rtibia 23.9279
rfoot -13.0235 1.60522
rtoes 14.0816
lfemur -13.9975 6.76496 -17.7101
ltibia 20.595
lfoot -9.58269 7.37875
ltoes 1.80551
393
root 0.400618 17.7245 -2.40012 7.03818 -2.24772 -1.17722
lowerback -0.113302 -0.302993 -0.716979
upperback 4.01517 -0.432579 1.23289
thorax 4.21252 -0.266168 1.65666
lowerneck -12.4486 0.495418 -2.11245
upperneck 35.963 0.881544 1.14922
head 14.4139 0.233115 0.980067
rclavicle -3.926e-015 6.06293e-015
rhumerus -21.1316 -9.6813 -84.0794
rradius 24.8752
rwrist 30.4265
rhand -18.8195 -25.9691
rfingers 7.12502
rthumb 7.47942 -55.8169
lclavicle -3.926e-015 6.06293e-015
lhumerus -17.6394 -4.2561 88.6013
lradius 19.1894
lwrist 6.53534
lhand -26.3906 -4.39789
lfingers 7.12502
lthumb 0.168518 25.5818
rfemur -16.4362 -0.127568 18.5706
rtibia 23.9304
rfoot -13.017 1.60625
rtoes 14.0931
lfemur -14.003 6.75634 -17.6956
ltibia 20.6069
lfoot -9.58323 7.36532
ltoes 1.80664
394
root 0.399406 17.7242 -2.40212 7.02662 -2.22521 -1.1816
lowerback -0.119732 -0.301152 -0.715545
upperback 4.01492 -0.430168 1.23382
thorax 4.21582 -0.264947 1.65689
lowerneck -12.4562 0.495744 -2.1095
upperneck 35.9778 0.882952 1.14623
head 14.4226 0.233685 0.978811
rclavicle -1.30452e-014 2.18663e-015
rhumerus -21.0983 -9.67196 -84.0927
rradius 24.8924
rwrist 30.4029
rhand -18.8059 -25.9835
rfingers 7.12502
rthumb 7.49251 -55.8308
lclavicle -1.30452e-014 2.18663e-015
lhumerus -17.6091 -4.22828 88.5931
lradius 19.1864
lwrist 6.51007
lhand -26.3752 -4.36958
lfingers 7.12502
lthumb 0.183374 25.6101
rfemur -16.4299 -0.146056 18.5809
rtibia 23.9351
rfoot -13.0127 1.60612
rtoes 14.1044
lfemur -14.0055 6.74856 -17.6846
ltibia 20.6163
lfoot -9.58332 7.35044
ltoes 1.79873
395
root 0.398164 17.7239 -2.40421 7.01717 -2.20418 -1.17645
lowerback -0.127695 -0.298647 -0.724788
upperback 4.01285 -0.426542 1.23342
thorax 4.21814 -0.263458 1.66176
lowerneck -12.4629 0.497314 -2.10504
upperneck 35.9954 0.88654 1.1412
head 14.4323 0.235104 0.976822
rclavicle 7.95139e-016 -3.67752e-015
rhumerus -21.071 -9.67016 -84.1014
rradius 24.9057
rwrist 30.3842
rhand -18.7942 -25.9986
rfingers 7.12502
rthumb 7.50382 -55.8455
lclavicle 7.95139e-016 -3.67752e-015
lhumerus -17.5875 -4.21537 88.5907
lradius 19.1827
lwrist 6.50059
lhand -26.3649 -4.34865
lfingers 7.12502
lthumb 0.193267 25.631
rfemur -16.4281 -0.16291 18.581
rtibia 23.943
rfoot -13.0107 1.60351
rtoes 14.111
lfemur -14.0086 6.74153 -17.6844
ltibia 20.622
lfoot -9.58158 7.33523
ltoes 1.77953
396
root 0.396946 17.7237 -2.40627 7.00648 -2.18408 -1.172
lowerback -0.134061 -0.295316 -0.733205
upperback 4.01012 -0.421866 1.23401
thorax 4.21883 -0.261422 1.66725
lowerneck -12.4672 0.499959 -2.09943
upperneck 36.0125 0.891816 1.1349
head 14.4412 0.237253 0.974347
rclavicle -6.26172e-015 -9.83984e-015
rhumerus -21.0499 -9.67538 -84.1059
rradius 24.9163
rwrist 30.3711
rhand -18.7872 -26.0122
rfingers 7.12502
rthumb 7.51054 -55.8589
lclavicle -6.26172e-015 -9.83984e-015
lhumerus -17.5716 -4.21384 88.5929
lradius 19.1747
lwrist 6.49927
lhand -26.3624 -4.34482
lfingers 7.12502
lthumb 0.195729 25.6348
rfemur -16.4253 -0.176292 18.5817
rtibia 23.952
rfoot -13.0112 1.59704
rtoes 14.1121
lfemur -14.0088 6.73616 -17.6831
ltibia 20.6253
lfoot -9.58033 7.31944
ltoes 1.76285
397
root 0.395684 17.7234 -2.40831 6.9949 -2.16401 -1.16672
lowerback -0.140662 -0.291302 -0.742299
upperback 4.00748 -0.416261 1.23464
thorax 4.21972 -0.25895 1.67319
lowerneck -12.4681 0.502228 -2.09475
upperneck 36.0284 0.896047 1.13046
head 14.4488 0.239104 0.972601
rclavicle 4.96962e-016 6.65929e-015
rhumerus -21.0353 -9.68313 -84.108
rradius 24.9272
rwrist 30.362
rhand -18.7867 -26.0182
rfingers 7.12502
rthumb 7.51108 -55.8648
lclavicle 4.96962e-016 6.65929e-015
lhumerus -17.5621 -4.21968 88.5986
lradius 19.1638
lwrist 6.50152
lhand -26.3633 -4.34266
lfingers 7.12502
lthumb 0.194864 25.637
rfemur -16.421 -0.185641 18.5816
rtibia 23.9605
rfoot -13.014 1.58626
rtoes 14.1112
lfemur -14.0073 6.731 -17.6823
ltibia 20.6278
lfoot -9.57892 7.30437
ltoes 1.74026
398
root 0.394412 17.7232 -2.41028 6.98119 -2.14581 -1.16665
lowerback -0.144918 -0.286005 -0.74586
upperback 4.00442 -0.409133 1.23672
thorax 4.21875 -0.255538 1.6776
lowerneck -12.4611 0.504749 -2.09278
upperneck 36.0401 0.899807 1.12989
head 14.4527 0.240964 0.97274
rclavicle 5.2181e-016 -3.97569e-016
rhumerus -21.0258 -9.70135 -84.107
rradius 24.9331
rwrist 30.3632
rhand -18.7919 -26.0141
rfingers 7.12502
rthumb 7.50599 -55.8609
lclavicle 5.2181e-016 -3.97569e-016
lhumerus -17.559 -4.22769 88.6053
lradius 19.1508
lwrist 6.49717
lhand -26.3601 -4.3352
lfingers 7.12502
lthumb 0.197968 25.6444
rfemur -16.4117 -0.189104 18.5872
rtibia 23.9643
rfoot -13.0159 1.57057
rtoes 14.1004
lfemur -14.0038 6.72825 -17.6753
ltibia 20.6324
lfoot -9.57949 7.28954
ltoes 1.72614
399
root 0.393147 17.7229 -2.41223 6.96554 -2.12734 -1.17347
lowerback -0.147726 -0.279877 -0.741791
upperback 4.00322 -0.401172 1.2408
thorax 4.21881 -0.251499 1.67982
lowerneck -12.452 0.506588 -2.09486
upperneck 36.048 0.901631 1.13489
head 14.4541 0.242247 0.97552
rclavicle -7.45443e-015 8.05078e-015
rhumerus -21.018 -9.72451 -84.1042
rradius 24.9371
rwrist 30.369
rhand -18.8014 -26.0051
rfingers 7.12502
rthumb 7.4968 -55.8522
lclavicle -7.45443e-015 8.05078e-015
lhumerus -17.5591 -4.22902 88.6126
lradius 19.1362
lwrist 6.48278
lhand -26.3557 -4.32012
lfingers 7.12502
lthumb 0.202183 25.6595
rfemur -16.3975 -0.189353 18.6002
rtibia 23.9633
rfoot -13.0157 1.55244
rtoes 14.0921
lfemur -13.9988 6.72771 -17.6604
ltibia 20.6389
lfoot -9.58261 7.27327
ltoes 1.72332
400
root 0.391964 17.7227 -2.41405 6.94809 -2.10747 -1.18331
lowerback -0.150667 -0.274192 -0.734134
upperback 4.0039 -0.39396 1.24635
thorax 4.22092 -0.247759 1.68153
lowerneck -12.4402 0.508857 -2.09993
upperneck 36.052 0.904006 1.14226
head 14.4531 0.243726 0.979815
rclavicle -5.31749e-015 6.06293e-015
rhumerus -21.0104 -9.7492 -84.1001
rradius 24.9371
rwrist 30.3777
rhand -18.8075 -25.9887
rfingers 7.12502
rthumb 7.49096 -55.8361
lclavicle -5.31749e-015 6.06293e-015
lhumerus -17.5654 -4.21082 88.6183
lradius 19.1239
lwrist 6.44417
lhand -26.3412 -4.29127
lfingers 7.12502
lthumb 0.216221 25.6884
rfemur -16.3774 -0.188864 18.6163
rtibia 23.956
rfoot -13.0131 1.53251
rtoes 14.0879
lfemur -13.9929 6.72728 -17.6422
ltibia 20.648
lfoot -9.58768 7.255
ltoes 1.73438
401
root 0.390876 17.7225 -2.41585 6.93079 -2.08659 -1.1936
lowerback -0.153541 -0.268981 -0.724531
upperback 4.00528 -0.387429 1.25175
thorax 4.22372 -0.244294 1.68196
lowerneck -12.4265 0.511919 -2.10458
upperneck 36.0519 0.907237 1.14999
head 14.4498 0.245722 0.984257
rclavicle -2.48481e-017 3.37934e-015
rhumerus -21.0016 -9.77691 -84.0955
rradius 24.9305
rwrist 30.3903
rhand -18.8129 -25.9756
rfingers 7.12502
rthumb 7.48574 -55.8232
lclavicle -2.48481e-017 3.37934e-015
lhumerus -17.579 -4.17941 88.6225
lradius 19.1154
lwrist 6.39494
lhand -26.3264 -4.26366
lfingers 7.12502
lthumb 0.230458 25.716
rfemur -16.3557 -0.189127 18.6325
rtibia 23.9454
rfoot -13.0081 1.51199
rtoes 14.0811
lfemur -13.9874 6.72599 -17.6239
ltibia 20.6571
lfoot -9.59369 7.23639
ltoes 1.74619
402
root 0.389992 17.7224 -2.41747 6.91226 -2.06401 -1.20419
lowerback -0.158821 -0.264404 -0.711142
upperback 4.00933 -0.381827 1.25631
thorax 4.23067 -0.241181 1.67936
lowerneck -12.4135 0.515668 -2.10831
upperneck 36.0482 0.911241 1.15775
head 14.4449 0.248216 0.988623
rclavicle 5.06901e-015 -1.19271e-015
rhumerus -20.9913 -9.80712 -84.0907
rradius 24.9211
rwrist 30.4069
rhand -18.8146 -25.9637
rfingers 7.12502
rthumb 7.48406 -55.8113
lclavicle 5.06901e-015 -1.19271e-015
lhumerus -17.5971 -4.13143 88.6245
lradius 19.1085
lwrist 6.33044
lhand -26.31 -4.23544
lfingers 7.12502
lthumb 0.246358 25.7442
rfemur -16.3308 -0.194696 18.6484
rtibia 23.933
rfoot -13.0035 1.49548
rtoes 14.0736
lfemur -13.9795 6.72334 -17.6059
ltibia 20.6651
lfoot -9.59997 7.21767
ltoes 1.76031
403
root 0.389224 17.7223 -2.4191 6.8962 -2.0416 -1.2057
lowerback -0.166883 -0.260594 -0.705563
upperback 4.01312 -0.376954 1.25818
thorax 4.239 -0.238662 1.67833
lowerneck -12.4045 0.520154 -2.10755
upperneck 36.0461 0.916603 1.16153
head 14.4417 0.25134 0.990818
rclavicle 6.4605e-015 -5.96354e-015
rhumerus -20.9822 -9.83878 -84.0855
rradius 24.9097
rwrist 30.4256
rhand -18.8105 -25.9572
rfingers 7.12502
rthumb 7.48808 -55.8046
lclavicle 6.4605e-015 -5.96354e-015
lhumerus -17.6229 -4.0813 88.627
lradius 19.1057
lwrist 6.27069
lhand -26.2996 -4.21585
lfingers 7.12502
lthumb 0.256347 25.7637
rfemur -16.3098 -0.201434 18.6535
rtibia 23.9219
rfoot -12.9982 1.48011
rtoes 14.0705
lfemur -13.974 6.71816 -17.5988
ltibia 20.6707
lfoot -9.6033 7.2009
ltoes 1.76372
